<?xml version="1.0" encoding="UTF-8" standalone="no"?>
<!-- Generator: Adobe Illustrator 18.1.1, SVG Export Plug-In . SVG Version: 6.00 Build 0)  -->

<svg
   version="1.1"
   id="Capa_1"
   x="0px"
   y="0px"
   viewBox="0 0 256 255.99999"
   xml:space="preserve"
   sodipodi:docname="oh-my-posh-logo-black.svg"
   width="256"
   height="256"
   inkscape:version="1.2.2 (732a01da63, 2022-12-09)"
   inkscape:export-filename="oh-my-posh-logo-black-transparent.png"
   inkscape:export-xdpi="96"
   inkscape:export-ydpi="96"
   xmlns:inkscape="http://www.inkscape.org/namespaces/inkscape"
   xmlns:sodipodi="http://sodipodi.sourceforge.net/DTD/sodipodi-0.dtd"
   xmlns="http://www.w3.org/2000/svg"
   xmlns:svg="http://www.w3.org/2000/svg"><defs
   id="defs45">
	
	

		
		
		
	</defs><sodipodi:namedview
   id="namedview43"
   pagecolor="#ffffff"
   bordercolor="#000000"
   borderopacity="0.24705882"
   inkscape:showpageshadow="2"
   inkscape:pageopacity="0.0"
   inkscape:pagecheckerboard="false"
   inkscape:deskcolor="#d1d1d1"
   showgrid="false"
   shape-rendering="auto"
   showguides="true"
   inkscape:zoom="1.6956501"
   inkscape:cx="53.076988"
   inkscape:cy="116.76937"
   inkscape:window-width="1920"
   inkscape:window-height="1009"
   inkscape:window-x="-8"
   inkscape:window-y="-8"
   inkscape:window-maximized="1"
   inkscape:current-layer="Capa_1" />
<rect
   style="fill:#fdfdfd;fill-opacity:1;stroke:none;stroke-width:8.92664;stroke-opacity:1"
   id="rect3129"
   width="256"
   height="256"
   x="-4.4408921e-15"
   y="4.4408921e-16" /><g
   id="g5684"
   transform="matrix(8,0,0,8,0.42587896,18.053879)"
   style="fill:#000000;fill-opacity:1"><path
     d="M 29.166265,0.52126526 H 2.7252653 c -1.217,0 -2.20400004,0.98500004 -2.20400004,2.20200004 V 24.761265 c 0,1.216 0.98700004,2.204 2.20400004,2.204 H 29.166265 c 1.215,0 2.206,-0.988 2.206,-2.204 V 2.7232653 c 0,-1.217 -0.992,-2.20200004 -2.206,-2.20200004 z M 7.6832653,2.1752653 c 0.607,0 1.102,0.491 1.102,1.103 0,0.607 -0.494,1.098 -1.102,1.098 -0.611,0 -1.104,-0.49 -1.104,-1.098 10e-4,-0.611 0.493,-1.103 1.104,-1.103 z m -3.307,0 c 0.608,0 1.102,0.491 1.102,1.103 0,0.607 -0.493,1.098 -1.102,1.098 -0.609,0 -1.103,-0.49 -1.103,-1.098 0.001,-0.611 0.494,-1.103 1.103,-1.103 z M 29.166265,24.762265 H 2.7252653 V 6.0532653 H 29.166265 Z"
     id="path2"
     style="fill:#000000;fill-opacity:1" /><polygon
     points="12.351,12.264 5.275,9.028 5.275,10.589 10.746,12.929 10.746,12.958 5.275,15.294 5.275,16.854 12.351,13.618 "
     id="polygon4"
     style="fill:#000000;fill-opacity:1"
     transform="translate(0.52126526,-1.6817347)" /><rect
     x="16.203264"
     y="10.517265"
     width="3.855"
     height="1.4859999"
     id="rect6"
     style="fill:#000000;fill-opacity:1" /></g><g
   id="Capa_1_86_"
   style="fill:#000000;fill-opacity:1"
   transform="translate(0,-2.203)">
	</g>
<g
   id="g12"
   transform="translate(0,-2.203)">
</g>
<g
   id="g14"
   transform="translate(0,-2.203)">
</g>
<g
   id="g16"
   transform="translate(0,-2.203)">
</g>
<g
   id="g18"
   transform="translate(0,-2.203)">
</g>
<g
   id="g20"
   transform="translate(0,-2.203)">
</g>
<g
   id="g22"
   transform="translate(0,-2.203)">
</g>
<g
   id="g24"
   transform="translate(0,-2.203)">
</g>
<g
   id="g26"
   transform="translate(0,-2.203)">
</g>
<g
   id="g28"
   transform="translate(0,-2.203)">
</g>
<g
   id="g30"
   transform="translate(0,-2.203)">
</g>
<g
   id="g32"
   transform="translate(0,-2.203)">
</g>
<g
   id="g34"
   transform="translate(0,-2.203)">
</g>
<g
   id="g36"
   transform="translate(0,-2.203)">
</g>
<g
   id="g38"
   transform="translate(0,-2.203)">
</g>
<g
   id="g40"
   transform="translate(0,-2.203)">
</g>
</svg>
